<svg xmlns="http://www.w3.org/2000/svg" viewBox="0 0 304.55 156.17"><defs><style>.cls-1{fill:#6496ff;}.cls-2{fill:#fc0000;}.cls-3{fill:#77bf43;}.cls-4{fill:#ed1c24;}.cls-5{fill:#fefefe;}.cls-6{fill:#d0d1d3;}.cls-7{fill:#050706;}.cls-8{fill:#fff;}.cls-9{fill:none;}</style></defs><g id="Layer_2" data-name="Layer 2"><g id="Layer_1-2" data-name="Layer 1"><path d="M115.53,69V53.69H127c3.53,0,6.6,1.36,6.6,5.41s-3.07,5.44-6.6,5.44h-8.2V69Zm3.29-12.27v4.71h8.42c1.77,0,3-.59,3-2.37s-1.25-2.34-3-2.34Z"/><path d="M135.59,53.69h12.17c3.29,0,5.92,1.25,5.92,4.93s-2.66,4.82-5.88,4.82h-.2L154.33,69h-5.08L143,63.55h-4.1V69h-3.29Zm12.28,6.79c1.44,0,2.45-.48,2.45-1.86s-1-1.86-2.45-1.86h-9v3.72Z"/><path d="M165.74,53.36c6.77,0,10.3,3.44,10.3,8s-3.53,8-10.3,8-10.31-3.44-10.31-8S159,53.36,165.74,53.36Zm0,12.93c4.75,0,6.95-2,6.95-4.93s-2.2-4.93-6.95-4.93-7,2-7,4.93S161,66.29,165.74,66.29Z"/><path d="M177,65.22a23.53,23.53,0,0,0,7.12,1.07c3.4,0,5.83-.55,5.83-3.4v-9.2h3.29v9.2c0,4.54-3.11,6.47-9.25,6.47a23.68,23.68,0,0,1-7.74-1.23Z"/><path d="M195.88,69V53.69h16.64v3.07H199.17v2.85h12v3.07h-12V66H213V69Z"/><path d="M233.83,68.13a23.77,23.77,0,0,1-7.8,1.23c-8,0-11.31-3.44-11.31-8s3.33-8,11.31-8a23.77,23.77,0,0,1,7.8,1.23l-.74,3A25,25,0,0,0,226,56.43c-5.79,0-8,2-8,4.93s2.17,4.93,8,4.93a25,25,0,0,0,7.06-1.12Z"/><path d="M245.45,56.76V69h-3.28V56.76h-7.24V53.69h17.76v3.07Z"/><path d="M130.22,90.35V84h-11.4v6.35h-3.29V75h3.29v5.92h11.4V75h3.29V90.35Z"/><path d="M136.14,90.35V75h16.64v3.07H139.43v2.85h12V84h-12v3.28h13.79v3.07Z"/><path d="M175.25,90.35h-3.79l-1.78-3.07H159.42l-1.75,3.07h-3.8L162.67,75h3.79Zm-13.81-6.57-.26.44h6.75l-.24-.44-3.14-5.9Z"/><path d="M176.35,90.35V75h3.29V87.28h12.69v3.07Z"/><path class="cls-1" d="M77.91,78.34l.6.2.26.1.62.24.22.09.12,0,.28.13c.28.12.56.26.84.4l.54.29.28.16.07,0a11.9,11.9,0,0,1,3.07-4.49A12.2,12.2,0,0,1,86.93,74l2.73-1.57,1.77-1,4.8-2.77A8.73,8.73,0,1,0,87.5,53.49l-4.8,2.78-1.78,1L78.2,58.86a11.7,11.7,0,0,1-2.41,1.06,12,12,0,0,1-1.77.41,12,12,0,0,1-3.66,0,12.25,12.25,0,0,1-1.77-.41,11.7,11.7,0,0,1-2.41-1.06l-2.72-1.57-1.77-1-4.81-2.78a8.74,8.74,0,0,0-8.74,15.13L53,71.39l3.61-2.08a11.41,11.41,0,0,0,1.39-1l-7.43-4.29a3.6,3.6,0,0,1,1.8-6.71,3.55,3.55,0,0,1,1.8.48l7.43,4.29,1.62.93.43.25A16.87,16.87,0,0,0,68,65.07a14.48,14.48,0,0,0,1.74.35,17.45,17.45,0,0,0,5,0,14.48,14.48,0,0,0,1.74-.35,17,17,0,0,0,4.35-1.77l.43-.25,1.63-.94,7.42-4.28a3.51,3.51,0,0,1,1.79-.48,3.6,3.6,0,0,1,1.81,6.71l-7.42,4.29-1.63.94-.43.25a17.16,17.16,0,0,0-3.71,2.88c-.41.42-.8.87-1.17,1.33A17.14,17.14,0,0,0,77,78.08l.3.08Z"/><path class="cls-1" d="M64.39,74.22c-.16.16-.32.31-.49.45s-.29.25-.44.37A16.24,16.24,0,0,1,62,76.16c-.17.12-.35.23-.53.34s-.36.22-.54.33l-.08,0A12,12,0,0,1,62.64,80a11.3,11.3,0,0,1,.53,1.74,12,12,0,0,1,.29,2.62V95.14a8.72,8.72,0,0,0,8.68,8.73h0A8.87,8.87,0,0,0,80.92,95v-5.4L77.31,87.5a11.09,11.09,0,0,0-1.52-.72v8.57a3.6,3.6,0,1,1-7.2,0V84.41A17.17,17.17,0,0,0,68,79.76a16.6,16.6,0,0,0-.57-1.68,17.14,17.14,0,0,0-2.5-4.33l-.13.12Z"/><path class="cls-2" d="M96.24,76.21l-4.81-2.77-3.61,2.08a11.41,11.41,0,0,0-1.39,1l7.43,4.29A3.6,3.6,0,1,1,90.26,87l-7.43-4.29-1.62-.93-.43-.25a17.26,17.26,0,0,0-6.09-2.12,17.52,17.52,0,0,0-5,0,18.56,18.56,0,0,1,.68,5v.09a12,12,0,0,1,3.66,0,12.25,12.25,0,0,1,1.77.41A11.7,11.7,0,0,1,78.2,86l2.72,1.57,1.77,1,4.81,2.78a8.74,8.74,0,0,0,8.74-15.13Z"/><path class="cls-2" d="M83.49,68l.08,0a11.8,11.8,0,0,1-1.83-3.17l-.08,0A18.74,18.74,0,0,1,77,66.75a17.38,17.38,0,0,0,2.5,4.34A19.18,19.18,0,0,1,83.49,68Z"/><path class="cls-2" d="M61.54,82.72,54.12,87a3.53,3.53,0,0,1-1.8.49,3.61,3.61,0,0,1-1.8-6.72l7.42-4.29,1.63-.93.43-.26a16.82,16.82,0,0,0,3.7-2.87c.42-.43.81-.87,1.18-1.33a17.38,17.38,0,0,0,2.5-4.34,19,19,0,0,1-4.67-1.91l-.07,0A11.8,11.8,0,0,1,60.81,68a12.94,12.94,0,0,1-1.24,1.33,11.66,11.66,0,0,1-2.12,1.55l-2.73,1.58-1.77,1-4.8,2.77a8.73,8.73,0,1,0,8.73,15.13l4.8-2.77V84.4A9.37,9.37,0,0,0,61.54,82.72Z"/><path class="cls-2" d="M72.19,41.65a3.68,3.68,0,0,1,3.68,3.68c0,1.85-1.73,4.21-3.68,6.12-1.89-1.86-3.68-4.23-3.68-6.12a3.68,3.68,0,0,1,3.68-3.68m0-5.27a9,9,0,0,0-8.95,8.95c0,7,8.95,12.93,8.95,12.93s9-6,9-12.93a9,9,0,0,0-9-8.95Z"/><path id="Path_781" data-name="Path 781" class="cls-3" d="M115.54,96.69V115.6a.36.36,0,0,0,.06.2V96.3A.54.54,0,0,0,115.54,96.69Z"/><path id="Path_782" data-name="Path 782" class="cls-4" d="M115.54,115.4V96.69a.54.54,0,0,1,.06-.39H98.36c-.07,0-.15,0-.23,0a2.53,2.53,0,0,0-1.59,1,2.14,2.14,0,0,0-.44,1.2v15a.19.19,0,0,1,0,.08,2.13,2.13,0,0,0,.74,1.49,2.29,2.29,0,0,0,1.46.7H115.6a.3.3,0,0,1-.06-.2Zm-9.14-6.24h0a3,3,0,0,0,.56,1.35,2.71,2.71,0,0,0,2.13,1.08h3.32c.16,0,.21,0,.2.2q0,.48,0,1c0,.11,0,.15-.15.15-1.13,0-2.26,0-3.39,0a4,4,0,0,1-3.29-1.8l0-.06a4,4,0,0,1-2.25,1.7,3.77,3.77,0,0,1-1.1.17H99.07c-.15,0-.19,0-.19-.19q0-.47,0-.93c0-.15.05-.19.19-.19,1,0,2.08,0,3.12,0a2.78,2.78,0,0,0,2.86-2.35,3.05,3.05,0,0,0,.06-.6c0-1.81,0-3.62,0-5.42a4.06,4.06,0,0,1,3.41-4.07,3,3,0,0,1,.6-.06h3.31c.16,0,.2.05.19.19,0,.31,0,.61,0,.92s0,.19-.2.19c-1.08,0-2.15,0-3.23,0a2.78,2.78,0,0,0-2.6,1.78,2.64,2.64,0,0,0-.18,1Z"/><path id="Path_791" data-name="Path 791" class="cls-5" d="M109.17,100.4q1.62,0,3.24,0c.15,0,.21,0,.2-.19s0-.61,0-.92c0-.14,0-.19-.19-.19h-3.31a2.91,2.91,0,0,0-.6.06,4.07,4.07,0,0,0-3.41,4.07c0,1.8,0,3.61,0,5.42a4.07,4.07,0,0,1-.06.6,2.79,2.79,0,0,1-2.86,2.36c-1,0-2.08,0-3.12,0-.14,0-.19,0-.19.18q0,.46,0,.93c0,.15,0,.19.19.19h3.31a3.77,3.77,0,0,0,1.1-.17,4,4,0,0,0,2.25-1.7,5,5,0,0,0,.67-1.87h0v-6a2.64,2.64,0,0,1,.18-1A2.77,2.77,0,0,1,109.17,100.4Z"/><path id="Path_792" data-name="Path 792" class="cls-6" d="M105.73,111l0,.06a4,4,0,0,0,3.29,1.8c1.13,0,2.26,0,3.39,0,.12,0,.15,0,.15-.15q0-.48,0-1c0-.16,0-.21-.2-.2h-3.32a2.7,2.7,0,0,1-2.13-1.08,3,3,0,0,1-.56-1.35,3.71,3.71,0,0,1-.57,1.79A.14.14,0,0,1,105.73,111Z"/><path id="Path_793" data-name="Path 793" class="cls-6" d="M105.73,111a.14.14,0,0,0,.1-.08,3.71,3.71,0,0,0,.57-1.79h0A5,5,0,0,1,105.73,111Z"/><path class="cls-7" d="M252.78,98.55a.06.06,0,0,1,0-.07A2.21,2.21,0,0,0,252,97a2.33,2.33,0,0,0-1.46-.69h-135v19.49H250.52l.22,0a2.52,2.52,0,0,0,1.59-1,2.15,2.15,0,0,0,.45-1.19h0v-15Z"/><path class="cls-8" d="M127.83,109.19a3.3,3.3,0,0,1-1.28,2.76,5.58,5.58,0,0,1-3.48,1,8.72,8.72,0,0,1-3.67-.61v-1.5a10.26,10.26,0,0,0,1.8.55,9.63,9.63,0,0,0,1.92.2,3.93,3.93,0,0,0,2.35-.59,2,2,0,0,0,.79-1.65,2.19,2.19,0,0,0-.28-1.14,2.58,2.58,0,0,0-.94-.82,12.57,12.57,0,0,0-2-.85,6.47,6.47,0,0,1-2.68-1.59,3.52,3.52,0,0,1-.8-2.39,3,3,0,0,1,1.17-2.47,4.83,4.83,0,0,1,3.08-.92,9,9,0,0,1,3.67.74l-.48,1.36a8.23,8.23,0,0,0-3.23-.7,3.14,3.14,0,0,0-1.93.53,1.74,1.74,0,0,0-.7,1.48,2.19,2.19,0,0,0,.26,1.14,2.42,2.42,0,0,0,.86.81,10.72,10.72,0,0,0,1.87.82A7.34,7.34,0,0,1,127,107,3.15,3.15,0,0,1,127.83,109.19Z"/><path class="cls-8" d="M137.22,112.76v-6.5a2.62,2.62,0,0,0-.56-1.83,2.26,2.26,0,0,0-1.75-.61,2.92,2.92,0,0,0-2.31.85,4.32,4.32,0,0,0-.73,2.82v5.27h-1.53V102.71h1.24l.25,1.38h.07a3.06,3.06,0,0,1,1.31-1.15,4.32,4.32,0,0,1,1.88-.41,3.83,3.83,0,0,1,2.73.87,3.71,3.71,0,0,1,.92,2.81v6.55Z"/><path class="cls-8" d="M150.54,107.73a5.52,5.52,0,0,1-1.24,3.83,4.34,4.34,0,0,1-3.42,1.38,4.54,4.54,0,0,1-2.39-.63,4.12,4.12,0,0,1-1.61-1.81,6.34,6.34,0,0,1-.57-2.77,5.53,5.53,0,0,1,1.23-3.83,4.34,4.34,0,0,1,3.41-1.37,4.27,4.27,0,0,1,3.35,1.4A5.57,5.57,0,0,1,150.54,107.73Zm-7.66,0a4.78,4.78,0,0,0,.77,2.93,2.69,2.69,0,0,0,2.27,1,2.73,2.73,0,0,0,2.27-1,4.79,4.79,0,0,0,.77-2.94,4.7,4.7,0,0,0-.77-2.91,3.11,3.11,0,0,0-4.55,0A4.79,4.79,0,0,0,142.88,107.73Z"/><path class="cls-8" d="M161.88,107.73a5.52,5.52,0,0,1-1.24,3.83,4.34,4.34,0,0,1-3.42,1.38,4.54,4.54,0,0,1-2.39-.63,4.12,4.12,0,0,1-1.61-1.81,6.34,6.34,0,0,1-.57-2.77,5.53,5.53,0,0,1,1.23-3.83,4.34,4.34,0,0,1,3.41-1.37,4.27,4.27,0,0,1,3.35,1.4A5.57,5.57,0,0,1,161.88,107.73Zm-7.66,0a4.78,4.78,0,0,0,.77,2.93,2.69,2.69,0,0,0,2.27,1,2.73,2.73,0,0,0,2.27-1,4.79,4.79,0,0,0,.77-2.94,4.7,4.7,0,0,0-.77-2.91,3.11,3.11,0,0,0-4.55,0A4.79,4.79,0,0,0,154.22,107.73Z"/><path class="cls-8" d="M170.51,100.56A4.37,4.37,0,0,0,167,102a5.89,5.89,0,0,0-1.28,4,6,6,0,0,0,1.23,4.06,4.37,4.37,0,0,0,3.52,1.44,11.8,11.8,0,0,0,3.19-.51v1.37a9.75,9.75,0,0,1-3.43.52,5.83,5.83,0,0,1-4.57-1.79,7.37,7.37,0,0,1-1.61-5.11,8.15,8.15,0,0,1,.77-3.63,5.54,5.54,0,0,1,2.24-2.4,6.77,6.77,0,0,1,3.44-.85,8.36,8.36,0,0,1,3.69.77l-.66,1.34A7.22,7.22,0,0,0,170.51,100.56Z"/><path class="cls-8" d="M188.25,106a7.35,7.35,0,0,1-1.63,5.06,5.7,5.7,0,0,1-4.52,1.84,5.79,5.79,0,0,1-4.57-1.81,7.44,7.44,0,0,1-1.61-5.11,7.32,7.32,0,0,1,1.62-5.07,5.82,5.82,0,0,1,4.58-1.8,5.72,5.72,0,0,1,4.51,1.83A7.38,7.38,0,0,1,188.25,106Zm-10.68,0a6.37,6.37,0,0,0,1.16,4.13,4.11,4.11,0,0,0,3.37,1.41,4,4,0,0,0,3.36-1.41,8,8,0,0,0,0-8.23,4.07,4.07,0,0,0-3.35-1.4,4.13,4.13,0,0,0-3.39,1.41A6.31,6.31,0,0,0,177.57,106Z"/><path class="cls-8" d="M201.94,105.93a6.76,6.76,0,0,1-1.8,5.07,7.14,7.14,0,0,1-5.19,1.76h-3.71V99.36h4.11a6,6,0,0,1,6.59,6.57Zm-1.65.06a5.41,5.41,0,0,0-1.32-4,5.28,5.28,0,0,0-3.91-1.32H192.8v10.7h1.9a5.76,5.76,0,0,0,4.19-1.37A5.42,5.42,0,0,0,200.29,106Z"/><path class="cls-8" d="M212.4,112.76h-7.47V99.36h7.47v1.38h-5.92v4.32H212v1.37h-5.56v4.94h5.92Z"/><path class="cls-4" d="M216.93,107.19v5.57h-1.56V99.36H219a5.8,5.8,0,0,1,3.65.94,3.44,3.44,0,0,1,1.18,2.84,3.57,3.57,0,0,1-2.7,3.6l3.64,6H223l-3.25-5.57Zm0-1.34h2.13a3.66,3.66,0,0,0,2.42-.66,2.4,2.4,0,0,0,.77-2,2.24,2.24,0,0,0-.78-1.92,4.25,4.25,0,0,0-2.52-.59h-2Z"/><path class="cls-4" d="M234.44,112.76H227V99.36h7.47v1.38h-5.91v4.32h5.56v1.37h-5.56v4.94h5.91Z"/><path class="cls-4" d="M248.11,105.93a6.76,6.76,0,0,1-1.8,5.07,7.13,7.13,0,0,1-5.18,1.76h-3.72V99.36h4.11a6,6,0,0,1,6.59,6.57Zm-1.65.06a5.45,5.45,0,0,0-1.31-4,5.3,5.3,0,0,0-3.91-1.32H239v10.7h1.9a5.75,5.75,0,0,0,4.19-1.37A5.42,5.42,0,0,0,246.46,106Z"/><rect class="cls-9" width="304.55" height="156.17"/></g></g></svg>